<?xml version="1.0" standalone="no"?>
<!DOCTYPE svg PUBLIC "-//W3C//DTD SVG 20010904//EN"
    "http://www.w3.org/TR/2001/REC-SVG-20010904/DTD/svg10.dtd">
<svg version="1.0" xmlns="http://www.w3.org/2000/svg"
     width="500.000000pt" height="500.000000pt" viewBox="0 0 500.000000 500.000000"
     preserveAspectRatio="xMidYMid meet">

    <g transform="translate(0.000000,500.000000) scale(0.100000,-0.100000)"
       fill="#ffff" stroke="none">
        <path d="M2575 4987 c-143 -37 -264 -163 -325 -338 -17 -46 -30 -96 -30 -110
0 -14 -3 -28 -6 -32 -4 -3 -34 8 -68 25 -141 70 -248 169 -328 301 -38 64 -43
68 -55 51 -53 -72 -57 -251 -8 -350 32 -65 99 -143 153 -176 25 -15 30 -23 21
-28 -15 -8 -383 -29 -539 -31 -158 -2 -171 -14 -25 -24 353 -22 1076 48 1880
181 247 41 329 57 321 65 -8 8 -135 -7 -414 -46 -133 -19 -244 -35 -245 -35
-2 0 5 33 15 73 25 96 21 221 -10 291 -65 145 -200 218 -337 183z"/>
        <path d="M310 4947 c-14 -7 -34 -27 -45 -44 -11 -18 -28 -32 -38 -33 -25 0
-77 -54 -77 -79 0 -11 -13 -29 -29 -40 -84 -60 -89 -273 -11 -446 32 -71 241
-420 352 -589 116 -176 236 -318 342 -405 36 -30 66 -59 66 -64 0 -6 -65 -211
-144 -456 -160 -494 -230 -718 -240 -771 -6 -33 -3 -38 61 -98 220 -208 437
-282 827 -282 61 0 148 -3 193 -7 l82 -6 15 -51 c8 -28 57 -215 110 -416 53
-201 105 -396 117 -435 33 -108 32 -109 -25 -115 -44 -5 -48 -6 -32 -19 25
-21 46 -65 46 -97 0 -24 -3 -26 -30 -21 -40 9 -47 -9 -10 -28 35 -18 37 -27
10 -66 l-21 -28 -49 27 c-62 34 -77 20 -26 -23 l40 -33 -35 -15 c-33 -13 -36
-13 -84 19 -34 24 -52 31 -60 23 -7 -7 -1 -18 19 -35 15 -14 25 -28 21 -32 -4
-4 -84 -10 -178 -13 -199 -8 -254 -22 -322 -81 -45 -39 -74 -101 -62 -131 7
-17 43 -23 255 -42 210 -19 384 -19 582 -1 182 17 275 31 347 52 l53 15 0 45
c0 94 -55 300 -116 429 -31 66 -39 75 -70 75 -18 0 -27 26 -87 242 -56 202
-177 694 -177 721 0 4 82 7 183 7 l183 0 23 -172 c12 -95 31 -198 41 -230 37
-121 103 -190 229 -240 48 -20 74 -23 191 -23 98 0 157 5 215 19 44 10 75 21
68 23 -7 2 -73 -3 -148 -11 -150 -18 -221 -12 -319 25 -106 39 -162 95 -198
197 -15 44 -98 552 -98 603 0 6 -5 7 -11 4 -5 -4 -9 -25 -7 -47 l3 -40 -105 3
c-58 2 -144 4 -192 3 l-87 -1 -15 41 c-46 131 20 -223 108 -581 45 -180 125
-448 161 -536 6 -15 -1 -17 -84 -17 l-91 0 0 26 c0 52 -262 1056 -294 1124
l-16 35 4 -39 5 -38 -87 6 c-73 6 -248 24 -502 52 -30 3 -68 13 -85 22 -41 21
-236 144 -233 147 2 1 44 -1 93 -5 307 -25 610 -32 1060 -27 467 6 613 12 820
39 143 18 77 21 -168 8 -401 -21 -1001 -23 -1387 -6 -195 9 -422 20 -503 23
-130 5 -147 8 -141 22 39 94 173 492 368 1086 267 818 353 1089 361 1143 6 36
6 36 -8 12 -12 -21 -89 -240 -224 -639 -15 -46 -32 -84 -38 -85 -5 0 -41 44
-78 99 -141 208 -245 423 -254 526 -6 66 16 121 92 227 74 103 80 186 18 227
-51 34 -111 -1 -189 -109 l-21 -30 -13 25 c-8 15 -16 81 -20 174 -6 140 -8
153 -34 202 -22 39 -40 58 -71 73 -49 24 -43 23 -75 7z m82 -47 c42 -33 59
-93 68 -237 8 -127 16 -159 47 -195 13 -14 13 -20 0 -45 -36 -71 -24 -70 21 2
88 139 150 188 193 149 17 -16 20 -28 16 -67 -3 -39 -17 -67 -73 -148 -67 -98
-69 -102 -72 -172 -3 -61 1 -85 27 -157 55 -150 190 -375 293 -487 21 -24 38
-49 38 -58 0 -23 -60 -204 -69 -210 -11 -6 -163 152 -244 254 -73 92 -188 267
-339 516 -191 314 -213 367 -213 525 0 87 3 111 20 139 31 53 42 49 49 -19 4
-34 16 -91 27 -126 l20 -64 -22 -30 c-37 -50 -13 -46 43 6 29 27 74 63 100 79
54 34 62 50 19 40 l-29 -6 -13 73 c-18 99 -18 220 0 241 18 23 63 21 93 -3z
m-142 -84 c0 -40 23 -157 40 -201 10 -27 9 -31 -27 -61 -26 -22 -40 -28 -45
-20 -11 19 -38 176 -38 221 0 28 7 51 21 69 29 37 49 34 49 -8z m393 -2856
c15 -5 86 -48 159 -96 72 -48 152 -93 177 -100 76 -21 437 -56 548 -52 108 3
113 1 113 -44 0 -14 -5 -18 -16 -14 -8 3 -99 10 -202 16 -476 26 -570 53 -807
230 l-110 81 55 -6 c30 -4 67 -11 83 -15z m1453 -280 l144 0 0 -25 0 -25 -185
0 c-102 0 -185 3 -185 8 0 4 -3 18 -7 31 -6 24 -5 24 42 18 26 -4 112 -7 191
-7z"/>
        <path d="M4668 4800 c-16 -12 -54 -81 -99 -179 l-73 -160 -28 58 c-24 49 -36
63 -73 81 -53 26 -87 21 -127 -18 -36 -33 -37 -77 -3 -123 64 -89 79 -123 83
-184 l4 -60 -88 -115 c-133 -174 -388 -467 -429 -492 -6 -4 6 60 27 142 39
156 92 421 103 526 l7 61 -96 -18 c-53 -10 -101 -21 -106 -24 -14 -8 -38 6
-125 76 -75 60 -77 61 -71 97 l6 37 -19 -36 c-67 -123 -285 -737 -441 -1239
-160 -514 -354 -1277 -315 -1238 3 2 48 162 101 354 220 804 322 1134 563
1819 45 127 83 236 86 244 4 9 18 -1 46 -32 45 -52 156 -129 212 -146 20 -7
37 -14 37 -16 0 -2 -38 -153 -84 -337 -47 -183 -90 -358 -96 -389 -10 -53 -15
-60 -93 -127 -45 -38 -93 -83 -107 -98 l-25 -28 30 19 c203 125 654 589 832
856 69 103 73 111 73 168 0 64 -11 91 -65 164 -49 64 -53 81 -29 115 22 32 83
30 123 -4 24 -19 37 -45 53 -100 l22 -74 94 188 c96 191 115 222 138 222 48 0
36 -120 -23 -232 -31 -59 -39 -67 -66 -70 l-32 -3 45 -29 c53 -34 72 -54 108
-121 23 -43 27 -47 30 -27 2 13 -2 37 -8 53 -11 26 -9 32 18 66 32 42 68 108
86 161 11 32 13 33 29 18 21 -21 21 -46 1 -144 -21 -103 -67 -212 -117 -275
-47 -60 -44 -57 -128 -121 -35 -26 -64 -52 -64 -56 0 -14 -290 -323 -461 -491
-228 -225 -357 -335 -656 -563 -236 -179 -240 -195 -9 -39 68 46 126 82 128
79 2 -2 -8 -43 -22 -92 -23 -79 -123 -480 -230 -922 l-37 -152 -77 0 c-128 0
-252 39 -359 112 -63 43 -63 27 0 -23 64 -51 134 -85 208 -100 52 -11 90 -29
62 -29 -10 0 -142 -16 -687 -83 -17 -2 -21 6 -27 57 -12 94 -18 78 -18 -45 0
-361 85 -549 275 -609 78 -25 209 -14 323 27 23 9 44 14 46 12 1 -2 -1 -57 -6
-123 -5 -65 -7 -120 -5 -122 3 -3 29 4 58 16 69 26 77 25 81 -5 4 -37 20 -35
30 2 8 30 12 33 49 33 l41 0 -6 -45 c-8 -53 9 -62 27 -15 12 33 33 36 50 8 8
-12 5 -27 -13 -62 -28 -51 -21 -70 14 -37 l23 22 -1 -139 -1 -140 30 -43 c72
-105 232 -131 273 -46 39 80 -5 564 -69 773 -35 112 -48 116 -249 90 -223 -30
-310 -63 -320 -121 -5 -28 -9 -29 -100 -48 -137 -27 -260 -21 -322 16 -109 63
-179 210 -190 397 l-3 55 95 7 c660 45 802 65 839 117 30 41 95 241 146 444
50 198 162 745 172 838 3 31 8 61 12 66 3 5 62 56 131 113 264 221 602 569
733 753 29 40 55 64 87 79 25 12 74 51 110 87 98 100 157 233 175 399 7 60 6
63 -24 91 -21 20 -31 38 -31 59 0 16 -10 42 -21 57 -18 22 -28 26 -55 23 -28
-3 -34 -1 -34 14 0 25 -36 58 -64 58 -13 0 -35 -9 -48 -20z m178 -95 c22 -33
12 -85 -36 -182 -58 -118 -58 -118 -103 -78 l-38 33 34 49 c37 52 61 107 71
166 6 31 11 37 31 37 15 0 31 -10 41 -25z m-945 -597 c-17 -90 -50 -250 -75
-357 -44 -192 -44 -193 -87 -237 -23 -24 -44 -42 -47 -40 -2 2 8 42 22 87 42
137 184 683 180 690 -2 4 -27 10 -56 14 l-53 8 70 11 c55 9 71 9 73 -1 2 -7
-10 -86 -27 -175z m-225 -1088 c-7 -25 -46 -196 -85 -380 -40 -184 -86 -389
-102 -455 -30 -120 -120 -448 -124 -453 -5 -6 -264 -33 -460 -47 -217 -16
-417 -38 -447 -50 -15 -6 -18 -2 -18 22 l0 30 128 6 c70 3 195 15 277 27 83
11 216 30 297 40 81 11 158 24 172 29 22 9 29 31 86 263 100 410 198 828 211
901 10 55 18 73 42 93 16 14 31 23 33 21 2 -1 -3 -23 -10 -47z"/>
        <path d="M3728 4175 c-3 -6 -33 -113 -67 -240 -33 -126 -74 -270 -91 -319 -29
-87 -40 -150 -21 -130 22 23 145 438 176 591 16 77 17 120 3 98z"/>
        <path d="M3534 4025 c-46 -153 -98 -374 -91 -382 5 -4 12 -2 16 5 16 26 102
391 99 419 -2 22 -7 14 -24 -42z"/>
        <path d="M2320 3854 c-25 -23 -47 -56 -60 -92 -51 -136 -30 -154 31 -27 29 62
48 89 69 100 71 37 110 6 110 -85 0 -30 4 -62 10 -70 14 -22 30 30 30 96 0 48
-4 60 -29 85 -24 24 -38 29 -75 29 -39 0 -52 -6 -86 -36z"/>
        <path d="M1749 3847 c-40 -27 -86 -113 -95 -177 -6 -38 -4 -43 7 -32 8 7 30
45 49 85 40 82 84 116 133 103 35 -8 47 -39 47 -117 0 -67 14 -77 29 -21 21
72 4 149 -37 171 -35 18 -96 13 -133 -12z"/>
        <path d="M3515 3429 c-4 -6 -5 -12 -2 -15 2 -3 7 2 10 11 7 17 1 20 -8 4z"/>
        <path d="M2201 3311 c-51 -141 -125 -241 -212 -287 -82 -42 -214 -22 -244 36
-19 37 -19 112 0 220 18 100 18 100 6 100 -16 0 -54 -146 -58 -225 -5 -100 12
-139 78 -173 37 -20 55 -23 119 -19 130 6 218 71 293 215 33 62 67 168 67 206
0 39 -20 9 -49 -73z"/>
        <path d="M3351 3377 c-6 -15 -13 -40 -16 -55 -4 -19 1 -15 16 16 11 24 18 49
16 55 -3 7 -10 -1 -16 -16z"/>
        <path d="M3191 2948 c-5 -13 -30 -102 -56 -198 -25 -96 -71 -256 -101 -355
-68 -221 -67 -215 -59 -215 28 0 179 481 219 699 16 84 15 115 -3 69z"/>
        <path d="M3380 2746 c0 -16 -110 -413 -156 -561 -68 -218 -67 -215 -60 -215
32 0 206 565 223 723 3 31 3 57 -1 57 -3 0 -6 -2 -6 -4z"/>
        <path d="M3261 2703 c-5 -10 -30 -99 -56 -198 -26 -99 -73 -265 -106 -369 -33
-104 -57 -191 -55 -194 18 -17 127 300 185 540 50 209 60 272 32 221z"/>
    </g>
</svg>
